<svg width="78" height="56" viewBox="0 0 78 56" fill="none" xmlns="http://www.w3.org/2000/svg">
<g filter="url(#filter0_dd_2_202)">
<path d="M35.9375 20.1875C35.6875 20.7917 35.4479 21.2708 35.2188 21.625C34.9896 21.9792 34.7396 22.2604 34.4688 22.4688C34.1979 22.6562 33.8854 22.7812 33.5312 22.8438C33.1979 22.9062 32.8021 22.9375 32.3438 22.9375C30.3854 22.7708 28.6979 22.6458 27.2812 22.5625C25.8854 22.4792 24.6458 22.4375 23.5625 22.4375C22.5 22.4375 21.5625 22.4792 20.75 22.5625C19.9583 22.6458 19.1771 22.7917 18.4062 23C18.0938 23.5 17.625 24.2917 17 25.375C16.375 26.4583 15.6771 27.6979 14.9062 29.0938C14.1562 30.4688 13.3854 31.9375 12.5938 33.5C11.8021 35.0625 11.0729 36.5625 10.4062 38C8.96875 41.125 7.67708 43.4583 6.53125 45C5.40625 46.5417 4.44792 47.3125 3.65625 47.3125C2.69792 47.3125 2 47.1354 1.5625 46.7812C1.14583 46.4479 0.9375 45.9479 0.9375 45.2812C0.9375 44.4896 1.21875 43.3854 1.78125 41.9688C2.36458 40.5312 3.16667 38.7917 4.1875 36.75C4.5625 36 4.96875 35.1979 5.40625 34.3438C5.86458 33.4896 6.32292 32.6354 6.78125 31.7812C7.23958 30.9271 7.6875 30.0938 8.125 29.2812C8.5625 28.4688 8.95833 27.7396 9.3125 27.0938C9.66667 26.4271 9.95833 25.8646 10.1875 25.4062C10.4375 24.9479 10.5938 24.6458 10.6562 24.5C10.7188 24.3333 10.7604 24.2188 10.7812 24.1562C10.8229 24.0938 10.8438 24.0521 10.8438 24.0312C10.8646 23.9896 10.875 23.9688 10.875 23.9688C10.875 23.9479 10.8854 23.8958 10.9062 23.8125H10.3438C9.55208 23.8125 8.91667 23.75 8.4375 23.625C7.95833 23.5 7.71875 23.2292 7.71875 22.8125C7.71875 22.5833 7.8125 22.2917 8 21.9375C8.4375 21.125 8.92708 20.5104 9.46875 20.0938C10.0104 19.6562 10.5312 19.3438 11.0312 19.1562C11.5521 18.9688 12.0208 18.875 12.4375 18.875C12.875 18.8542 13.2083 18.8438 13.4375 18.8438C14 17.6979 14.5625 16.5521 15.125 15.4062C15.6875 14.2604 16.25 13.1146 16.8125 11.9688C17.875 9.86458 18.9479 8.10417 20.0312 6.6875C21.1354 5.27083 22.3333 4.13542 23.625 3.28125C24.9167 2.42708 26.3438 1.82292 27.9062 1.46875C29.4688 1.09375 31.25 0.90625 33.25 0.90625C35.0833 0.90625 36.5417 0.958333 37.625 1.0625C38.7292 1.16667 39.5 1.27083 39.9375 1.375C40.7708 1.60417 41.3542 2 41.6875 2.5625C42.0417 3.10417 42.2188 3.70833 42.2188 4.375C42.2188 4.89583 42.125 5.41667 41.9375 5.9375C41.7708 6.45833 41.5312 6.9375 41.2188 7.375C40.9271 7.79167 40.5833 8.13542 40.1875 8.40625C39.8125 8.67708 39.4271 8.8125 39.0312 8.8125C38.8021 8.8125 38.6042 8.77083 38.4375 8.6875C37.9792 8.47917 37.5625 8.30208 37.1875 8.15625C36.8333 7.98958 36.4688 7.86458 36.0938 7.78125C35.7188 7.67708 35.2917 7.60417 34.8125 7.5625C34.3542 7.52083 33.7812 7.5 33.0938 7.5C32.3854 7.5 31.5417 7.52083 30.5625 7.5625C29.6042 7.58333 28.4271 7.625 27.0312 7.6875C26.4688 8.66667 25.9375 9.58333 25.4375 10.4375C24.9583 11.2708 24.4792 12.1042 24 12.9375C23.5417 13.75 23.0625 14.5833 22.5625 15.4375C22.0833 16.2708 21.5521 17.1875 20.9688 18.1875C21.7396 17.9167 22.5729 17.6771 23.4688 17.4688C24.3854 17.2396 25.3125 17.0521 26.25 16.9062C27.2083 16.7604 28.1667 16.6458 29.125 16.5625C30.0833 16.4792 31 16.4375 31.875 16.4375C33.4583 16.4375 34.5938 16.5625 35.2812 16.8125C35.9896 17.0625 36.3438 17.5729 36.3438 18.3438C36.3438 18.5104 36.3333 18.7604 36.3125 19.0938C36.2917 19.4062 36.1667 19.7708 35.9375 20.1875ZM36.5625 18.9688C36.5625 18.4896 36.6458 18 36.8125 17.5C37 16.9792 37.2708 16.5104 37.625 16.0938C37.9792 15.6771 38.4167 15.3333 38.9375 15.0625C39.4792 14.7917 40.1146 14.6562 40.8438 14.6562C42.0521 14.6562 42.8958 14.8958 43.375 15.375C43.8542 15.8333 44.0938 16.4167 44.0938 17.125C44.0938 17.5208 44.0104 17.9583 43.8438 18.4375C43.6979 18.9167 43.4688 19.3646 43.1562 19.7812C42.8438 20.1771 42.4375 20.5104 41.9375 20.7812C41.4375 21.0521 40.8438 21.1875 40.1562 21.1875C38.8646 21.1875 37.9583 20.9896 37.4375 20.5938C36.9167 20.1771 36.625 19.6354 36.5625 18.9688ZM33.125 26C33.4792 25.4167 33.8854 25 34.3438 24.75C34.8021 24.5 35.2708 24.375 35.75 24.375C36.5417 24.375 37.2188 24.6354 37.7812 25.1562C38.3646 25.6562 38.6562 26.3021 38.6562 27.0938C38.6354 27.2812 38.6042 27.4688 38.5625 27.6562C38.5417 27.8438 38.4792 28.0312 38.375 28.2188C38.0833 28.7604 37.8438 29.2188 37.6562 29.5938C37.4688 29.9688 37.2917 30.3229 37.125 30.6562C36.9792 30.9688 36.8333 31.2812 36.6875 31.5938C36.5417 31.9062 36.3646 32.2812 36.1562 32.7188C35.9062 33.2396 35.625 33.8125 35.3125 34.4375C35 35.0417 34.6979 35.6667 34.4062 36.3125C34.1354 36.9583 33.8958 37.5938 33.6875 38.2188C33.5 38.8438 33.4062 39.4167 33.4062 39.9375C33.4062 40.5 33.5417 40.875 33.8125 41.0625C34.1042 41.2292 34.5104 41.3125 35.0312 41.3125C35.6146 41.3125 36.2188 41.1875 36.8438 40.9375C37.4896 40.6875 38.1354 40.3646 38.7812 39.9688C39.4271 39.5729 40.0625 39.125 40.6875 38.625C41.3125 38.1042 41.8958 37.5833 42.4375 37.0625C43 36.5417 43.5104 36.0417 43.9688 35.5625C44.4479 35.0833 44.8438 34.6562 45.1562 34.2812C45.5729 33.8854 45.9896 33.6875 46.4062 33.6875C46.7812 33.6875 47.0833 33.8542 47.3125 34.1875C47.5625 34.5208 47.6875 34.9479 47.6875 35.4688C47.6875 35.9479 47.5625 36.4583 47.3125 37C47.0833 37.5417 46.6979 38.0521 46.1562 38.5312C45.0938 39.6146 44.0104 40.6562 42.9062 41.6562C41.8021 42.6354 40.6667 43.5104 39.5 44.2812C38.3542 45.0312 37.1979 45.6354 36.0312 46.0938C34.8646 46.5521 33.6875 46.7812 32.5 46.7812C30.8125 46.7812 29.4792 46.3542 28.5 45.5C27.5417 44.625 27.0625 43.2708 27.0625 41.4375C27.0625 40.4792 27.1979 39.5417 27.4688 38.625C27.7396 37.7083 28.0625 36.8229 28.4375 35.9688C28.8125 35.0938 29.2083 34.2604 29.625 33.4688C30.0417 32.6562 30.3958 31.8854 30.6875 31.1562C30.7917 30.8854 30.9688 30.4688 31.2188 29.9062C31.4896 29.3438 31.7708 28.7708 32.0625 28.1875C32.3958 27.5 32.75 26.7708 33.125 26ZM53.3438 28.625C52.5729 30.125 51.8438 31.5938 51.1562 33.0312C50.4688 34.4479 49.8229 35.7604 49.2188 36.9688C48.9688 37.4688 48.7188 38.0521 48.4688 38.7188C48.2396 39.3646 48.125 39.9375 48.125 40.4375C48.125 40.7292 48.1875 40.9583 48.3125 41.125C48.4583 41.2917 48.6875 41.375 49 41.375C49.4375 41.375 49.9896 41.25 50.6562 41C51.3229 40.7292 52.0417 40.3854 52.8125 39.9688C53.5833 39.5312 54.3958 39.0417 55.25 38.5C56.1042 37.9375 56.9375 37.3646 57.75 36.7812C58.5833 36.1771 59.375 35.5833 60.125 35C60.875 34.3958 61.5417 33.8438 62.125 33.3438C62.4583 33.1146 62.7708 33 63.0625 33C63.4167 33 63.7083 33.1562 63.9375 33.4688C64.1667 33.7812 64.2812 34.1771 64.2812 34.6562C64.2812 35.1354 64.1667 35.625 63.9375 36.125C63.7083 36.625 63.2917 37.1146 62.6875 37.5938C61.3333 38.8229 59.9583 39.9896 58.5625 41.0938C57.1875 42.1979 55.8125 43.1771 54.4375 44.0312C53.0833 44.8646 51.7396 45.5312 50.4062 46.0312C49.0729 46.5312 47.7812 46.7812 46.5312 46.7812C45.6979 46.7812 45 46.6667 44.4375 46.4375C43.875 46.2292 43.4167 45.9375 43.0625 45.5625C42.7292 45.1667 42.4896 44.7188 42.3438 44.2188C42.1979 43.6979 42.125 43.1458 42.125 42.5625C42.125 41.5208 42.3021 40.4375 42.6562 39.3125C43.0104 38.1875 43.4062 37.1771 43.8438 36.2812C44.4688 34.9896 45.0833 33.7083 45.6875 32.4375C46.3125 31.1667 46.9167 29.9479 47.5 28.7812H46.1562C44.9896 28.7812 44.1875 28.5938 43.75 28.2188C43.3125 27.8438 43.0938 27.4167 43.0938 26.9375C43.0938 26.7292 43.1562 26.4792 43.2812 26.1875C43.4271 25.875 43.625 25.5938 43.875 25.3438C44.1458 25.0729 44.4688 24.8438 44.8438 24.6562C45.2188 24.4688 45.6458 24.375 46.125 24.375H49.5L56.0938 11.2812C56.5104 10.4896 57.0208 9.92708 57.625 9.59375C58.25 9.23958 58.8958 9.0625 59.5625 9.0625C60.1875 9.0625 60.7604 9.22917 61.2812 9.5625C61.8021 9.89583 62.0625 10.4479 62.0625 11.2188C62.0625 11.6146 61.9688 12.0208 61.7812 12.4375C61.6146 12.8333 61.3854 13.3021 61.0938 13.8438C60.9062 14.1979 60.6771 14.625 60.4062 15.125C60.1354 15.6042 59.8438 16.125 59.5312 16.6875C59.2396 17.2292 58.9271 17.8021 58.5938 18.4062C58.2812 19.0104 57.9688 19.5938 57.6562 20.1562C56.9479 21.4896 56.1979 22.8958 55.4062 24.375H65.5938C66.0938 24.375 66.5521 24.4062 66.9688 24.4688C67.3854 24.5104 67.7396 24.6146 68.0312 24.7812C68.3438 24.9271 68.5833 25.1354 68.75 25.4062C68.9167 25.6771 69 26.0417 69 26.5C69 26.7292 68.9583 26.9583 68.875 27.1875C68.8125 27.4167 68.6771 27.625 68.4688 27.8125C68.2812 28 68.0104 28.1562 67.6562 28.2812C67.3229 28.4062 66.8854 28.4896 66.3438 28.5312L53.3438 28.625ZM69.5 28.4062C70.7708 29.0729 71.9062 29.8333 72.9062 30.6875C73.9062 31.5417 74.75 32.4479 75.4375 33.4062C76.1458 34.3438 76.6771 35.3021 77.0312 36.2812C77.4062 37.2604 77.5938 38.2188 77.5938 39.1562C77.5938 40.3438 77.25 41.4167 76.5625 42.375C75.8958 43.3125 75.0104 44.1146 73.9062 44.7812C72.8229 45.4271 71.5729 45.9167 70.1562 46.25C68.7604 46.6042 67.3438 46.7812 65.9062 46.7812C64.8229 46.7812 63.7708 46.6562 62.75 46.4062C61.7292 46.1771 60.7917 45.8125 59.9375 45.3125C59.1042 44.8125 58.3854 44.1771 57.7812 43.4062C57.1771 42.6146 56.75 41.6771 56.5 40.5938C56.4583 40.4271 56.4375 40.2917 56.4375 40.1875C56.4375 39.625 56.6354 39.1458 57.0312 38.75C57.4271 38.3333 57.8646 38.125 58.3438 38.125C58.5729 38.125 58.8229 38.1667 59.0938 38.25C59.3854 38.3333 59.6042 38.5208 59.75 38.8125C60.0208 39.3125 60.3958 39.7604 60.875 40.1562C61.375 40.5521 61.9271 40.8958 62.5312 41.1875C63.1354 41.4583 63.7708 41.6771 64.4375 41.8438C65.125 41.9896 65.7917 42.0625 66.4375 42.0625C67.1042 42.0625 67.7396 42 68.3438 41.875C68.9688 41.75 69.5104 41.5521 69.9688 41.2812C70.4479 41.0104 70.8229 40.6667 71.0938 40.25C71.3646 39.8333 71.5 39.3229 71.5 38.7188C71.5 37.6562 71.2604 36.6771 70.7812 35.7812C70.3021 34.8854 69.6771 34.0625 68.9062 33.3125C68.1562 32.5417 67.2917 31.8333 66.3125 31.1875C65.3542 30.5208 64.3958 29.8854 63.4375 29.2812C63.3333 29.2188 63.1771 29.0417 62.9688 28.75C62.7604 28.4375 62.6562 28.125 62.6562 27.8125C62.6562 27.5625 62.7188 27.3646 62.8438 27.2188C63.1771 26.7812 63.5625 26.3333 64 25.875C64.4375 25.4167 64.9062 25 65.4062 24.625C65.9062 24.2292 66.4479 23.9167 67.0312 23.6875C67.6146 23.4375 68.2188 23.3125 68.8438 23.3125C69.3021 23.3125 69.7292 23.375 70.125 23.5C70.5208 23.625 70.8542 23.7917 71.125 24C71.3958 24.1875 71.6042 24.4062 71.75 24.6562C71.9167 24.8854 72 25.1042 72 25.3125C72 25.6042 71.9271 25.8854 71.7812 26.1562C71.6354 26.4271 71.4375 26.6875 71.1875 26.9375C70.9583 27.1875 70.6875 27.4375 70.375 27.6875C70.0833 27.9375 69.7917 28.1771 69.5 28.4062Z" fill="#F6F3F7"/>
</g>
<defs>
<filter id="filter0_dd_2_202" x="0.9375" y="0.90625" width="76.6562" height="54.4062" filterUnits="userSpaceOnUse" color-interpolation-filters="sRGB">
<feFlood flood-opacity="0" result="BackgroundImageFix"/>
<feColorMatrix in="SourceAlpha" type="matrix" values="0 0 0 0 0 0 0 0 0 0 0 0 0 0 0 0 0 0 127 0" result="hardAlpha"/>
<feOffset dy="8"/>
<feComposite in2="hardAlpha" operator="out"/>
<feColorMatrix type="matrix" values="0 0 0 0 0.529412 0 0 0 0 0.45098 0 0 0 0 0.905882 0 0 0 1 0"/>
<feBlend mode="normal" in2="BackgroundImageFix" result="effect1_dropShadow_2_202"/>
<feColorMatrix in="SourceAlpha" type="matrix" values="0 0 0 0 0 0 0 0 0 0 0 0 0 0 0 0 0 0 127 0" result="hardAlpha"/>
<feOffset dy="4"/>
<feComposite in2="hardAlpha" operator="out"/>
<feColorMatrix type="matrix" values="0 0 0 0 0.27451 0 0 0 0 0.713726 0 0 0 0 0.945098 0 0 0 1 0"/>
<feBlend mode="normal" in2="effect1_dropShadow_2_202" result="effect2_dropShadow_2_202"/>
<feBlend mode="normal" in="SourceGraphic" in2="effect2_dropShadow_2_202" result="shape"/>
</filter>
</defs>
</svg>
